<svg width="45" height="44" viewBox="0 0 45 44" fill="none" xmlns="http://www.w3.org/2000/svg">
<path d="M22.5356 37.021C30.7356 37.021 37.5356 30.221 37.5356 22.021C37.5356 13.821 30.7356 7.021 22.5356 7.021C14.3356 7.021 7.53564 13.821 7.53564 22.021C7.53564 30.221 14.3356 37.021 22.5356 37.021ZM22.5356 35.021C15.2356 35.021 9.43565 29.221 9.43565 22.021C9.43565 14.821 15.2356 8.92099 22.4356 8.92099C29.6356 8.92099 35.5356 14.721 35.5356 22.021C35.5356 29.221 29.7356 35.021 22.5356 35.021ZM19.2356 29.321C19.5356 29.621 20.1356 29.621 20.5356 29.321L27.0356 23.121C27.7356 22.521 27.7356 21.521 27.0356 20.921L20.5356 14.721C20.1356 14.321 19.6356 14.321 19.3356 14.721C18.9356 15.021 18.9356 15.621 19.3356 15.921L25.7356 22.021L19.3356 28.121C18.8356 28.421 18.8356 29.021 19.2356 29.321Z" fill="#232323"/>
</svg>
